# AST/ASF file generated using VICON BodyLanguage
# -----------------------------------------------
:version 1.10
:name VICON
:units
  mass 1.0
  length 0.45
  angle deg
:documentation
   .ast/.asf automatically generated from VICON data using
   VICON BodyBuilder and BodyLanguage model FoxedUp or BRILLIANT.MOD
:root
   order TX TY TZ RX RY RZ
   axis XYZ
   position 0 0 0  
   orientation 0 0 0 
:bonedata
  begin
     id 1 
     name lhipjoint
     direction 0.588788 -0.725889 0.355548 
     length 2.37778 
     axis 0 0 0  XYZ
  end
  begin
     id 2 
     name lfemur
     direction 0.34202 -0.939693 0  
     length 6.86393  
     axis 0 0 20  XYZ
    dof rx ry rz
    limits (-160.0 20.0)
           (-70.0 70.0)
           (-60.0 70.0)
  end
  begin
     id 3 
     name ltibia
     direction 0.34202 -0.939693 0   
     length 7.32851   
     axis 0 0 20   XYZ
    dof rx
    limits (-10.0 170.0)
  end
  begin
     id 4 
     name lfoot
     direction 0.0626533 -0.172138 0.983078   
     length 1.98929   
     axis -90 7.62852e-016 20   XYZ
    dof rx rz
    limits (-45.0 90.0)
           (-70.0 20.0)
  end
  begin
     id 5 
     name ltoes
     direction 1.53647e-011 -4.21734e-011 1   
     length 1.00479   
     axis -90 7.62852e-016 20   XYZ
    dof rx
    limits (-90.0 20.0)
  end
  begin
     id 6 
     name rhipjoint
     direction -0.59141 -0.724168 0.354705   
     length 2.38343  
     axis 0 0 0  XYZ 
  end
  begin
     id 7 
     name rfemur
     direction -0.34202 -0.939693 0   
     length 6.95589   
     axis 0 0 -20   XYZ
    dof rx ry rz
    limits (-160.0 20.0)
           (-70.0 70.0)
           (-70.0 60.0)
  end
  begin
     id 8 
     name rtibia
     direction -0.34202 -0.939693 0   
     length 7.32327   
     axis 0 0 -20   XYZ
    dof rx
    limits (-10.0 170.0)
 end
 begin
     id 9 
     name rfoot
     direction -0.0660461 -0.18146 0.981178   
     length 1.85272  
     axis -90 -7.62852e-016 -20   XYZ
    dof rx rz
    limits (-45.0 90.0)
           (-20.0 70.0)
  end
  begin
     id 10 
     name rtoes
     direction -1.53586e-011 -4.21988e-011 1   
     length 0.93746   
     axis -90 -7.62852e-016 -20   XYZ
    dof rx
    limits (-90.0 20.0)
  end
  begin
     id 11 
     name lowerback
     direction -0.0107982 0.991059 0.13299   
     length 1.98691   
     axis 0 0 0   XYZ
    dof rx ry rz
    limits (-20.0 45.0)
           (-30.0 30.0)
           (-30.0 30.0)
  end
  begin
     id 12 
     name upperback
     direction 0.0076296 0.999916 0.0104576   
     length 1.99501   
     axis 0 0 0   XYZ
    dof rx ry rz
    limits (-20.0 45.0)
           (-30.0 30.0)
           (-30.0 30.0)
  end
  begin
     id 13 
     name thorax
     direction 0.01176 0.998615 -0.0512909   
     length 2.03144   
     axis 0 0 0   XYZ
    dof rx ry rz
    limits (-20.0 45.0)
           (-30.0 30.0)
           (-30.0 30.0)
  end
  begin
     id 14 
     name lowerneck
     direction -0.0171909 0.999644 0.0204011   
     length 1.71818   
     axis 0 0 0   XYZ
    dof rx ry rz
    limits (-20.0 45.0)
           (-30.0 30.0)
           (-30.0 30.0)
  end
  begin
     id 15 
     name upperneck
     direction 0.0250902 0.997482 -0.0663316   
     length 1.66199   
     axis 0 0 0   XYZ
    dof rx ry rz
    limits (-20.0 45.0)
           (-30.0 30.0)
           (-30.0 30.0)
  end
  begin
     id 16
     name head
     direction 0.00881535 0.99956 -0.0283365  
     length 1.81545  
     axis 0 0 0   XYZ
    dof rx ry rz
    limits (-20.0 45.0)
           (-30.0 30.0)
           (-30.0 30.0)
  end
  begin
     id 17 
     name lclavicle
     direction 0.840411 0.486876 -0.238035  
     length 3.30409  
     axis 0 0 0   XYZ
    dof ry rz
    limits (-20.0 10.0)
           (0.0 20.0)
  end
  begin
     id 18 
     name lhumerus
     direction 1 -4.48977e-011 -5.16239e-027   
     length 4.62672   
     axis 180 -30 -90   XYZ
    dof rx ry rz
    limits (-60.0 90.0)
           (-90.0 90.0)
           (-90.0 90.0)
  end
  begin
     id 19
     name lradius
     direction 1 -4.48977e-011 -8.71171e-027   
     length 3.11018   
     axis 180 -30 -90   XYZ
    dof rx
    limits (-10.0 170.0)
  end
  begin
     id 20
     name lwrist
     direction 1 -4.48912e-011 -1.03764e-026   
     length 1.55509   
     axis 9.09556e-015 90 90   XYZ
    dof ry
    limits (-180.0 0.0)
 end
  begin
     id 21 
     name lhand
     direction 1 -4.49072e-011 -2.07528e-026   
     length 0.743834   
     axis 1.3242e-014 90 90   XYZ
    dof rx rz
    limits (-90.0 90.0)
           (-45.0 45.0)
  end
  begin
     id 22 
     name lfingers
     direction 1 -4.48909e-011 -4.15056e-026   
     length 0.599698   
     axis 2.64841e-014 90 90   XYZ
    dof rx
    limits (0.0 90.0)
  end
  begin
     id 23
     name lthumb
     direction 0.707107 -6.35013e-011 0.707107   
     length 0.86105   
     axis -90 45 2.85299e-015   XYZ
    dof rx rz
    limits (-45.0 45.0)
           (-45.0 45.0)
  end
  begin
     id 24 
     name rclavicle
     direction -0.835208 0.500237 -0.228452   
     length 3.2716  
     axis 0 0 0   XYZ 
    dof ry rz
    limits (-10.0 20.0)
           (-20.0 0.0)
  end
  begin
     id 25 
     name rhumerus
     direction -1 -4.48978e-011 -5.1953e-028  
     length 4.55919   
     axis 180 30 90   XYZ
    dof rx ry rz
    limits (-90.0 60.0)
           (-90.0 90.0)
           (-90.0 90.0)
  end
  begin
     id 26 
     name rradius
     direction -1 -4.48961e-011 -5.99546e-027   
     length 3.22748   
     axis 180 30 90   XYZ
    dof rx
    limits (-10.0 170.0)
  end
  begin
     id 27 
     name rwrist
     direction -1 -4.48986e-011 -1.03764e-026   
     length 1.61374   
     axis 9.09556e-015 -90 -90   XYZ
    dof ry
    limits (-180.0 0.0)
  end
  begin
     id 28
     name rhand
     direction -1 -4.4899e-011 -2.07528e-026   
     length 0.700882   
     axis 1.3242e-014 -90 -90   XYZ
    dof rx rz
    limits (-90.0 90.0)
           (-45.0 45.0)
  end
  begin
     id 29
     name rfingers
     direction -1 -4.48991e-011 -4.15056e-026   
     length 0.565069   
     axis 2.64841e-014 -90 -90   XYZ
    dof rx
    limits (0.0 90.0)
  end
  begin
     id 30
     name rthumb
     direction -0.707107 -6.34804e-011 0.707107   
     length 0.811329   
     axis -90 -45 -2.85299e-015   XYZ
    dof rx rz
    limits (-45.0 45.0)
           (-45.0 45.0)
  end
:hierarchy
  begin
    root lhipjoint rhipjoint lowerback
    lhipjoint lfemur
    lfemur ltibia
    ltibia lfoot
    lfoot ltoes
    rhipjoint rfemur
    rfemur rtibia
    rtibia rfoot
    rfoot rtoes
    lowerback upperback
    upperback thorax
    thorax lowerneck lclavicle rclavicle
    lowerneck upperneck
    upperneck head
    lclavicle lhumerus
    lhumerus lradius
    lradius lwrist
    lwrist lhand lthumb
    lhand lfingers
    rclavicle rhumerus
    rhumerus rradius
    rradius rwrist
    rwrist rhand rthumb
    rhand rfingers
  end

#!OML:ASF F:\VICON\USERDATA\INSTALL\SteveWalk\SteveWalk.ASF
:FULLY-SPECIFIED
:DEGREES
16
root -0.334866 15.9172 -39.1156 18.2319 -6.63504 -0.151226
lowerback -16.2765 1.92525 -0.49706
upperback -4.20402 2.6309 -0.347192
thorax 4.62777 1.28961 0.437549
lowerneck -3.88794 -1.87643 0.463603
upperneck 6.90161 -2.44769 -1.34015
head 2.84693 -1.25014 -0.599839
rclavicle -3.04855e-014 8.19987e-016
rhumerus -19.6343 8.94061 -86.5603
rradius 63.2711
rwrist -18.0172
rhand -17.2281 -32.3846
rfingers 7.12502
rthumb 9.01521 -62.172
lclavicle -3.04855e-014 8.19987e-016
lhumerus -71.2357 32.4289 36.475
lradius 10.3909
lwrist -52.3089
lhand -11.2364 -15.1735
lfingers 7.12502
lthumb 14.7927 14.2786
rfemur -0.130094 -4.50387 19.3808
rtibia 23.3845
rfoot -21.6087 19.7732
rtoes -10.5809
lfemur -48.9063 4.93495 -23.8603
ltibia 14.4882
lfoot -9.06133 0.600467
ltoes -18.294
17
root -0.329095 15.8958 -38.8383 18.2637 -6.62081 -0.107929
lowerback -16.3249 1.96666 -0.851337
upperback -4.45519 2.74258 -0.375576
thorax 4.37134 1.34512 0.625128
lowerneck -4.08574 -1.96113 0.344965
upperneck 7.35866 -2.56924 -1.08895
head 3.04313 -1.30563 -0.511163
rclavicle -9.34715e-017 -8.46698e-015
rhumerus -20.8371 8.50011 -86.4163
rradius 63.7432
rwrist -18.0665
rhand -17.0465 -32.5021
rfingers 7.12502
rthumb 9.1905 -62.2818
lclavicle -9.34715e-017 -8.46698e-015
lhumerus -74.1063 33.5199 31.318
lradius 10.0403
lwrist -56.5185
lhand -11.0299 -15.3802
lfingers 7.12502
lthumb 14.9917 14.0571
rfemur 0.538209 -4.04427 19.1081
rtibia 23.7162
rfoot -19.9835 20.2243
rtoes -11.9892
lfemur -49.4779 4.79197 -24.1567
ltibia 17.5516
lfoot -8.81909 0.713522
ltoes -20.4996
18
root -0.317329 15.903 -38.5592 18.3416 -6.46247 -0.105142
lowerback -16.3665 1.97338 -1.01302
upperback -4.72311 2.77766 -0.428829
thorax 4.10434 1.36506 0.662029
lowerneck -4.16724 -2.02031 0.106768
upperneck 7.64721 -2.6636 -0.667291
head 3.1659 -1.34384 -0.341699
rclavicle 4.19311e-016 -2.45996e-015
rhumerus -22.0827 8.0197 -86.3267
rradius 64.0592
rwrist -17.8594
rhand -16.6252 -31.4051
rfingers 7.12502
rthumb 9.59695 -61.1666
lclavicle 4.19311e-016 -2.45996e-015
lhumerus -75.4044 33.6054 29.1792
lradius 9.9387
lwrist -57.6624
lhand -10.6309 -15.2141
lfingers 7.12502
lthumb 15.376 14.1942
rfemur 1.22302 -3.51148 18.9443
rtibia 23.9647
rfoot -17.9427 20.5143
rtoes -13.1194
lfemur -50.0006 4.8201 -24.6754
ltibia 20.5087
lfoot -6.20313 0.0841617
ltoes -24.2555
19
root -0.302571 15.9228 -38.2827 18.4008 -6.3145 0.157846
lowerback -16.6621 1.90908 -1.35987
upperback -4.78953 2.76038 -0.575701
thorax 4.18266 1.35445 0.709248
lowerneck -4.14749 -2.12001 -0.0358509
upperneck 7.62106 -2.81478 -0.317911
head 3.16016 -1.40993 -0.209532
rclavicle 4.01343e-014 -2.08724e-015
rhumerus -23.1304 7.76124 -86.3421
rradius 64.4749
rwrist -18.0244
rhand -17.281 -31.9221
rfingers 7.12502
rthumb 8.96423 -61.7117
lclavicle 4.01343e-014 -2.08724e-015
lhumerus -76.5219 34.0513 27.0394
lradius 9.84077
lwrist -58.7928
lhand -10.551 -14.4993
lfingers 7.12502
lthumb 15.453 14.903
rfemur 1.70257 -3.07216 18.5217
rtibia 24.4397
rfoot -15.7275 20.7127
rtoes -14.3202
lfemur -50.796 3.71378 -24.1375
ltibia 23.1194
lfoot -4.45679 -0.707909
ltoes -19.6034
20
root -0.295247 15.9313 -38.0147 18.4534 -6.20659 0.594229
lowerback -17.3067 1.80307 -1.97838
upperback -4.57716 2.75427 -0.784941
thorax 4.73251 1.3398 0.865327
lowerneck -4.32048 -2.27682 0.0612548
upperneck 7.37967 -3.04923 -0.0916556
head 3.11224 -1.51531 -0.162774
rclavicle 2.42486e-014 -1.41137e-014
rhumerus -23.7386 7.35654 -86.4305
rradius 64.6949
rwrist -18.3057
rhand -17.8256 -33.0538
rfingers 7.12502
rthumb 8.43866 -62.8653
lclavicle 2.42486e-014 -1.41137e-014
lhumerus -77.2565 35.0141 25.0366
lradius 9.61075
lwrist -60.1857
lhand -10.8303 -14.2776
lfingers 7.12502
lthumb 15.1839 15.1453
rfemur 1.75038 -2.62004 18.0118
rtibia 25.447
rfoot -12.6322 21.0094
rtoes -14.0828
lfemur -51.4743 2.93139 -24.0072
ltibia 25.3044
lfoot -3.29385 -1.68397
ltoes -14.4671
21
root -0.292138 15.9223 -37.7495 18.4716 -6.08003 1.0452
lowerback -16.7587 1.70795 -2.57358
upperback -5.07514 2.71771 -1.07372
thorax 3.89866 1.33542 0.857226
lowerneck -4.37488 -2.45525 0.0132765
upperneck 7.79181 -3.32111 0.327055
head 3.27334 -1.63461 -0.0349176
rclavicle -4.81121e-014 1.35174e-014
rhumerus -25.5838 6.69614 -86.796
rradius 64.9261
rwrist -18.3034
rhand -17.8007 -33.8564
rfingers 7.12502
rthumb 8.46272 -63.6668
lclavicle -4.81121e-014 1.35174e-014
lhumerus -78.5215 34.9109 22.6251
lradius 9.55609
lwrist -61.5077
lhand -11.0913 -14.3246
lfingers 7.12502
lthumb 14.9325 15.1171
rfemur 1.39876 -2.25217 17.5289
rtibia 27.1536
rfoot -8.80692 21.3619
rtoes -13.0838
lfemur -51.8178 2.56231 -24.2487
ltibia 27.026
lfoot -2.37687 -2.8657
ltoes -11.0953
22
root -0.288922 15.9076 -37.4869 18.4037 -5.97233 1.65103
lowerback -17.8183 1.51783 -3.38721
upperback -4.50065 2.67691 -1.27155
thorax 5.04553 1.28515 1.14865
lowerneck -4.6066 -2.53148 -0.239844
upperneck 7.28703 -3.444 0.883595
head 3.16126 -1.68293 0.184603
rclavicle 3.52222e-015 -8.74653e-015
rhumerus -25.7894 6.1221 -86.818
rradius 64.725
rwrist -18.2745
rhand -18.0029 -34.3153
rfingers 7.12502
rthumb 8.26757 -64.1335
lclavicle 3.52222e-015 -8.74653e-015
lhumerus -79.2752 36.3149 20.6261
lradius 9.50676
lwrist -62.5024
lhand -10.8928 -14.7101
lfingers 7.12502
lthumb 15.1238 14.7173
rfemur 0.804562 -2.33597 16.7345
rtibia 29.5228
rfoot -5.61979 21.8588
rtoes -14.8392
lfemur -51.8976 2.38931 -24.9301
ltibia 28.7282
lfoot -1.96483 -3.57809
ltoes -12.2988
